<svg xmlns="http://www.w3.org/2000/svg" viewBox="0 0 128 128" role="img" aria-label="Neural Sentinel">
  <defs>
    <linearGradient id="shield" x1="0%" x2="100%" y1="0%" y2="100%">
      <stop offset="0%" stop-color="#48a3ff" />
      <stop offset="100%" stop-color="#00e6a7" />
    </linearGradient>
    <linearGradient id="core" x1="0%" x2="100%" y1="0%" y2="100%">
      <stop offset="0%" stop-color="#ff7a59" />
      <stop offset="100%" stop-color="#ffffff" />
    </linearGradient>
  </defs>
  <rect width="128" height="128" rx="28" fill="#07111f" />
  <path
    d="M64 18l34 12v28c0 24.6-14.4 42.6-34 52-19.6-9.4-34-27.4-34-52V30l34-12z"
    fill="url(#shield)"
  />
  <path
    d="M64 37c-8.8 0-16 7.2-16 16 0 5.7 2.9 10.6 7.4 13.4V79c0 2 1.6 3.6 3.6 3.6h10c2 0 3.6-1.6 3.6-3.6V66.4c4.5-2.8 7.4-7.7 7.4-13.4 0-8.8-7.2-16-16-16zm0 8.8a7.2 7.2 0 110 14.4 7.2 7.2 0 010-14.4z"
    fill="#07111f"
  />
  <circle cx="64" cy="53" r="6.4" fill="url(#core)" />
  <g stroke="#07111f" stroke-linecap="round" stroke-width="4">
    <path d="M42 52h-9" />
    <path d="M95 52h-9" />
    <path d="M64 91v9" />
    <path d="M50 82l-7 7" />
    <path d="M78 82l7 7" />
  </g>
</svg>
